<?xml version="1.0" standalone="no"?>
<!DOCTYPE svg PUBLIC "-//W3C//DTD SVG 20010904//EN"
 "http://www.w3.org/TR/2001/REC-SVG-20010904/DTD/svg10.dtd">
<svg version="1.0" xmlns="http://www.w3.org/2000/svg"
 width="32.000000pt" height="32.000000pt" viewBox="0 0 32.000000 32.000000"
 preserveAspectRatio="xMidYMid meet">

<g transform="translate(0.000000,32.000000) scale(0.100000,-0.100000)"
fill="#000000" stroke="none">
<path d="M122 278 c-5 -7 -13 -27 -16 -44 -5 -24 -3 -33 9 -38 13 -4 15 -13
10 -36 -5 -23 -3 -30 8 -30 9 0 18 -6 21 -12 5 -10 7 -10 12 0 3 6 12 12 21
12 11 0 13 7 8 30 -5 23 -3 32 10 36 12 5 14 14 9 38 -9 43 -22 56 -54 56 -15
0 -32 -6 -38 -12z m57 -57 c21 -14 5 -43 -21 -39 -29 4 -39 48 -11 48 10 0 24
-4 32 -9z m5 -60 c3 -5 -1 -14 -9 -21 -12 -10 -18 -10 -30 0 -18 15 -11 30 15
30 10 0 21 -4 24 -9z"/>
<path d="M71 126 c-7 -8 -13 -34 -14 -57 -2 -34 2 -44 15 -47 12 -2 18 5 21
30 l4 33 1 -33 c2 -26 6 -33 20 -30 26 5 30 85 5 104 -23 17 -38 17 -52 0z"/>
<path d="M197 126 c-24 -19 -21 -99 5 -104 12 -2 18 5 21 30 l4 33 1 -33 c2
-26 6 -33 20 -30 13 3 17 13 15 47 -3 65 -28 86 -66 57z"/>
<path d="M150 60 c0 -22 5 -40 10 -40 6 0 10 18 10 40 0 22 -4 40 -10 40 -5 0
-10 -18 -10 -40z"/>
</g>
</svg>
