<?xml version="1.0" standalone="no"?>
<!DOCTYPE svg PUBLIC "-//W3C//DTD SVG 20010904//EN"
 "http://www.w3.org/TR/2001/REC-SVG-20010904/DTD/svg10.dtd">
<svg version="1.0" xmlns="http://www.w3.org/2000/svg"
 width="32.000000pt" height="32.000000pt" viewBox="0 0 32.000000 32.000000"
 preserveAspectRatio="xMidYMid meet">

<g transform="translate(0.000000,32.000000) scale(0.100000,-0.100000)"
fill="#000000" stroke="none">
<path d="M62 308 c-19 -19 -14 -37 13 -44 32 -8 32 -24 0 -54 l-25 -24 37 -38
c21 -22 47 -38 59 -38 13 0 29 -9 37 -20 13 -18 16 -16 72 40 58 58 58 60 40
80 -23 25 -41 26 -48 0 -7 -26 -33 -36 -53 -19 -21 17 -14 51 13 65 21 10 21
12 7 32 -19 27 -36 28 -59 2 -24 -27 -44 -25 -55 5 -11 28 -20 31 -38 13z"/>
<path d="M0 65 c0 -58 2 -65 20 -65 18 0 20 7 20 65 0 58 -2 65 -20 65 -18 0
-20 -7 -20 -65z"/>
<path d="M50 66 l0 -56 80 0 c75 0 83 2 137 37 64 41 58 52 -14 30 -57 -18
-145 -28 -137 -16 3 5 19 9 35 9 44 0 31 24 -17 32 -21 3 -49 9 -61 13 -22 7
-23 5 -23 -49z"/>
</g>
</svg>
