<?xml version="1.0" standalone="no"?>
<!DOCTYPE svg PUBLIC "-//W3C//DTD SVG 20010904//EN"
 "http://www.w3.org/TR/2001/REC-SVG-20010904/DTD/svg10.dtd">
<svg version="1.0" xmlns="http://www.w3.org/2000/svg"
 width="32.000000pt" height="32.000000pt" viewBox="0 0 32.000000 32.000000"
 preserveAspectRatio="xMidYMid meet">

<g transform="translate(0.000000,32.000000) scale(0.100000,-0.100000)"
fill="#000000" stroke="none">
<path d="M86 305 c-8 -8 -19 -15 -25 -15 -13 0 -14 -20 -2 -38 5 -9 24 -12 57
-10 57 4 70 26 32 58 -28 24 -42 25 -62 5z"/>
<path d="M12 268 c-16 -16 -16 -200 0 -216 7 -7 34 -12 61 -12 40 0 54 5 73
25 l23 25 -59 0 c-32 0 -62 5 -65 10 -4 6 17 10 54 10 48 0 61 3 61 15 0 12
-13 15 -61 15 -37 0 -58 4 -54 10 3 6 35 10 71 10 36 0 64 4 64 10 0 6 -30 10
-70 10 -40 0 -70 4 -70 10 0 14 137 13 142 -1 6 -19 48 13 48 36 0 21 -25 65
-32 55 -2 -3 -8 -14 -14 -25 -9 -16 -23 -21 -72 -23 -58 -3 -62 -2 -68 23 -7
28 -14 31 -32 13z"/>
<path d="M198 144 c-9 -20 -9 -30 0 -45 17 -27 15 -37 -10 -41 -17 -2 -24 -11
-26 -30 l-3 -28 81 0 81 0 -3 28 c-2 19 -9 28 -25 30 -26 4 -28 14 -11 41 9
15 9 25 0 45 -16 37 -68 37 -84 0z"/>
</g>
</svg>
